# xmcd CD database file
#
# Track frame offsets:
#	182
#	18535
#	39392
#	53600
#	71545
#	85762
#	102625
#	116500
#	130477
#	147827
#
# Disc length: 2345 seconds
#
# Revision: 2
# Processed by: cddbd v1.5PL3 Copyright (c) Steve Scherf et al.
# Submitted via: CDex 1.51
#
DISCID=8709270a
DTITLE=Sammy Hagar - Sammy Hagar
DYEAR=1977
DGENRE=Hard Rock
TTITLE0=Red
TTITLE1=Catch The Wind
TTITLE2=Crusin' And Boozin'
TTITLE3=Free Money
TTITLE4=Rock 'N' Roll Weekend
TTITLE5=Fillmore Shuffle
TTITLE6=Hungry
TTITLE7=The Pits
TTITLE8=Love Has Found Me
TTITLE9=Little Star/Eclipse
EXTD=YEAR: 1977
EXTT0=Carter, S. Hagar
EXTT1=D. Leitch
EXTT2=S. Hagar
EXTT3=Smith, Kaye
EXTT4=S. Hagar
EXTT5=Stephens
EXTT6=Mann, Weil
EXTT7=Carter, S. Hagar
EXTT8=S. Hagar
EXTT9=S. Hagar
PLAYORDER=
